{"title":"Notes of a Scandal.XviD.Swe_Sub.avi","uid":5466186,"size":738344960,"categoryP":"video","categoryS":"movies","magnet":"?xt=urn:btih:1deef6daf12681aaef141ccf7d2a37b1119fe62c&amp;dn=Notes+of+a+Scandal.XviD.Swe_Sub.avi&amp;tr=udp%3A%2F%2Ftracker.openbittorrent.com%3A80&amp;tr=udp%3A%2F%2Fopen.demonii.com%3A1337&amp;tr=udp%3A%2F%2Ftracker.coppersurfer.tk%3A6969&amp;tr=udp%3A%2F%2Fexodus.desync.com%3A6969","seeders":0,"leechers":1,"uploader":"Zen_Bud","files":-1,"time":1269628002,"description":"General\nComplete name                    : Notes of a Scandal.Swe_Sub.avi\nFormat                           : AVI\nFile size                        : 704 MiB\nDuration                         : 1h 28mn\nOverall bit rate                 : 1 118 Kbps\nWriting application              : VirtualDubMod 1.5.4.1 (build 2178/release)\nWriting library                  : VirtualDubMod build 2178/release\n\nVideo\nID                               : 0\nFormat                           : MPEG-4 Visual\nCodec ID/Hint                    : XviD\nDuration                         : 1h 28mn\nBit rate                         : 992 Kbps\nWidth                            : 608 pixels\nHeight                           : 336 pixels\nDisplay aspect ratio             : 16:9\nFrame rate                       : 25.000 fps\nResolution                       : 8 bits\nColorimetry                      : 4:2:0\nScan type                        : Progressive\nBits/(Pixel*Frame)               : 0.194\nStream size                      : 624 MiB (89%)\nWriting library                  : XviD 1.3.0.dev55\n\nAudio\nID                               : 1\nFormat                           : MPEG Audio\nMode                             : Joint stereo\nFormat_Settings_ModeExtension    : MS Stereo\nCodec ID                         : 55\nCodec ID/Hint                    : MP3\nDuration                         : 1h 28mn\nBit rate                         : 114 Kbps\nNominal bit rate                 : 128 Kbps\nChannel(s)                       : 2 channels\nSampling rate                    : 48.0 KHz\nStream size                      : 71.5 MiB (10%)\nLanguage                         : English\n\n","torrent":{"xt":"urn:btih:1deef6daf12681aaef141ccf7d2a37b1119fe62c","amp;dn":"Notes+of+a+Scandal.XviD.Swe_Sub.avi","amp;tr":["udp%3A%2F%2Ftracker.openbittorrent.com%3A80","udp%3A%2F%2Fopen.demonii.com%3A1337","udp%3A%2F%2Ftracker.coppersurfer.tk%3A6969","udp%3A%2F%2Fexodus.desync.com%3A6969"],"infoHash":"1deef6daf12681aaef141ccf7d2a37b1119fe62c","infoHashBuffer":{"type":"Buffer","data":[29,238,246,218,241,38,129,170,239,20,28,207,125,42,55,177,17,159,230,44]},"announce":[],"urlList":[]}}